<svg width="12" height="16" viewBox="0 0 12 16" fill="none" xmlns="http://www.w3.org/2000/svg">
<path d="M10.245 4.94751L6 0.702515L1.755 4.94751C-0.585 7.28751 -0.585 11.09 1.755 13.43C2.31213 13.9877 2.97394 14.4298 3.70243 14.731C4.43091 15.0322 5.21172 15.1865 6 15.185C7.5375 15.185 9.075 14.6 10.245 13.43C12.585 11.09 12.585 7.28751 10.245 4.94751ZM6 13.6925C4.8 13.6925 3.6675 13.2275 2.82 12.3725C1.965 11.5175 1.5 10.3925 1.5 9.19251C1.5 7.99251 1.965 6.86001 2.82 6.01252L6 2.82501V13.6925Z" fill="#0F4780"/>
</svg>
