<svg width="18" height="18" viewBox="0 0 18 18" fill="none" xmlns="http://www.w3.org/2000/svg">
<path d="M9.17824 7.18673C9.25541 7.18688 9.32952 7.15711 9.38511 7.10357L11.3139 5.25339L13.3122 6.8274C13.42 6.91246 13.5719 6.91289 13.6804 6.82871L16.4694 4.66122L16.3737 5.90537C16.361 6.06994 16.4841 6.21349 16.6487 6.22619C16.6564 6.22677 16.6642 6.22706 16.6719 6.22706C16.8279 6.22692 16.9576 6.1067 16.9695 5.95118L17.1172 4.0317C17.1231 3.95248 17.0975 3.874 17.0455 3.81374C16.9936 3.75349 16.9198 3.71643 16.8406 3.71074L14.7734 3.5631C14.6094 3.55231 14.4675 3.67602 14.4558 3.84C14.444 4.00384 14.5668 4.14652 14.7308 4.15921L16.0227 4.25141L13.4983 6.21335L11.4794 4.62314C11.3624 4.53094 11.1953 4.53911 11.0878 4.64225L8.97136 6.67247C8.88339 6.75694 8.85553 6.88634 8.90104 6.99955C8.94656 7.11262 9.05627 7.18673 9.17824 7.18673V7.18673Z" fill="#4D4D4D"/>
<path d="M17.7012 15.6951H16.2837V8.0574C16.2837 7.8924 16.1372 7.77729 15.9722 7.77729H13.0883C12.9233 7.77729 12.773 7.8924 12.773 8.0574V15.6951H10.943V9.50536C10.9392 9.33642 10.8032 9.20045 10.6342 9.19651H7.75043C7.58528 9.19651 7.46959 9.34036 7.46959 9.50536V15.6951H5.60219V12.2016C5.60015 12.0317 5.46593 11.893 5.29626 11.8856H2.4123C2.2473 11.8856 2.12883 12.0366 2.12883 12.2016V15.6951H0.597567V2.01505C0.597567 1.85005 0.463786 1.71627 0.298784 1.71627C0.133782 1.71627 0 1.85005 0 2.01505V16.0045C0.000875343 16.0828 0.0331171 16.1575 0.0897227 16.2118C0.146182 16.2659 0.222191 16.2951 0.300534 16.2926H17.7012C17.8662 16.2926 18 16.1588 18 15.9938C18 15.8288 17.8662 15.6951 17.7012 15.6951V15.6951ZM2.7264 15.6951V12.4831H5.00463V15.6951H2.7264ZM8.06716 15.6951V9.79408H10.3454V15.6951H8.06716ZM13.3706 15.6951V8.37486H15.6861V15.6951H13.3706Z" fill="#4D4D4D"/>
<path d="M4.65694 7.80866C4.33015 7.80822 4.06521 7.54329 4.06477 7.21649C4.06477 7.05149 3.93099 6.91771 3.76599 6.91771C3.60099 6.91771 3.46721 7.05149 3.46721 7.21649C3.46794 7.74812 3.82099 8.21511 4.33234 8.36086V8.6363C4.33234 8.8013 4.46612 8.93508 4.63112 8.93508C4.79612 8.93508 4.92991 8.8013 4.92991 8.6363V8.37428C5.5177 8.23568 5.90854 7.67882 5.83866 7.07892C5.76892 6.47916 5.26093 6.02661 4.65694 6.02676C4.32986 6.02676 4.06477 5.76153 4.06477 5.43459C4.06477 5.1075 4.32986 4.84227 4.65694 4.84242C4.98403 4.84242 5.24911 5.1075 5.24911 5.43459C5.24911 5.59959 5.3829 5.73337 5.5479 5.73337C5.7129 5.73337 5.84668 5.59959 5.84668 5.43459C5.84595 4.86853 5.44723 4.38126 4.89256 4.26834V4.00515C4.89256 3.84015 4.75878 3.70637 4.59377 3.70637C4.42877 3.70637 4.29499 3.84015 4.29499 4.00515V4.30131C3.73638 4.47959 3.39091 5.03849 3.48121 5.61782C3.57152 6.1973 4.07061 6.62447 4.65694 6.62432C4.98403 6.62432 5.24911 6.88955 5.24911 7.21649C5.24911 7.54358 4.98403 7.80866 4.65694 7.80866Z" fill="#4D4D4D"/>
<path d="M4.65699 10.0263C6.68939 10.0263 8.33693 8.37879 8.33693 6.34654C8.33693 4.31414 6.68939 2.6666 4.65699 2.6666C2.62459 2.6666 0.977051 4.31414 0.977051 6.34654C0.979385 8.37791 2.62561 10.0241 4.65699 10.0263ZM4.65699 3.26417C6.35939 3.26417 7.73937 4.64414 7.73937 6.34654C7.73937 8.04878 6.35939 9.42876 4.65699 9.42876C2.95474 9.42876 1.57462 8.04878 1.57462 6.34654C1.57666 4.64502 2.95547 3.26607 4.65699 3.26417Z" fill="#4D4D4D"/>
</svg>
