<svg width="18" height="18" viewBox="0 0 18 18" fill="none" xmlns="http://www.w3.org/2000/svg">
<path d="M7.61539 2C6.858 2 6.23077 2.62723 6.23077 3.38462V4.07692H2.07692C0.938077 4.07692 0 5.015 0 6.15385V16.5385H18V6.15385C18 5.015 17.0619 4.07692 15.9231 4.07692H11.7692V3.38462C11.7692 2.62723 11.142 2 10.3846 2H7.61539ZM7.61539 3.38462H10.3846V4.07692H7.61539V3.38462ZM2.07692 5.46154H15.9231C16.3149 5.46154 16.6154 5.762 16.6154 6.15385V15.1538H1.38462V6.15385C1.38462 5.762 1.68508 5.46154 2.07692 5.46154ZM8.30769 7.53846V9.61539H6.23077V11H8.30769V13.0769H9.69231V11H11.7692V9.61539H9.69231V7.53846H8.30769Z" fill="#4D4D4D"/>
</svg>
