<svg width="18" height="18" viewBox="0 0 18 18" fill="none" xmlns="http://www.w3.org/2000/svg">
<path d="M9 2C8.10485 2 7.34192 2.58431 7.05254 3.38462H2.07692V4.76923H3.05031L2.85577 5.11538L0.0865385 9.96154L0 10.1346V10.3077C0 12.2115 1.55769 13.7692 3.46154 13.7692C5.36538 13.7692 6.92308 12.2115 6.92308 10.3077V10.1346L6.83654 9.96154L4.06731 5.11538L3.87277 4.76923H7.05323C7.15731 5.05774 7.32367 5.31977 7.54049 5.53671C7.7573 5.75364 8.01924 5.92015 8.30769 6.02438V15.1538H5.53846V16.5385H12.4615V15.1538H9.69231V6.02369C9.98034 5.91878 10.2419 5.75212 10.4588 5.53542C10.6756 5.31872 10.8424 5.05721 10.9475 4.76923H14.1272L13.9327 5.11538L11.1635 9.96154L11.0769 10.1346V10.3077C11.0769 12.2115 12.6346 13.7692 14.5385 13.7692C16.4423 13.7692 18 12.2115 18 10.3077V10.1346L17.9135 9.96154L15.1442 5.11538L14.9497 4.76923H15.9231V3.38462H10.9468C10.6581 2.58431 9.89585 2 9 2ZM9 3.38462C9.38977 3.38462 9.69231 3.68785 9.69231 4.07692C9.69231 4.46669 9.38908 4.76923 9 4.76923C8.61023 4.76923 8.30769 4.466 8.30769 4.07692C8.30769 3.68715 8.61092 3.38462 9 3.38462ZM3.46154 6.86762L5.04069 9.61539H1.88308L3.46154 6.86762ZM14.5385 6.86762L16.1176 9.61539H12.96L14.5385 6.86762ZM1.55769 11H5.36538C5.08708 11.8031 4.365 12.3846 3.46154 12.3846C2.55808 12.3846 1.836 11.8031 1.55769 11ZM12.6346 11H16.4423C16.164 11.8031 15.4419 12.3846 14.5385 12.3846C13.635 12.3846 12.9129 11.8031 12.6346 11Z" fill="#4D4D4D"/>
</svg>
