<svg width="18" height="18" viewBox="0 0 18 18" fill="none" xmlns="http://www.w3.org/2000/svg">
<path d="M9.33333 0C8.49333 0 7.9 0.593333 7.60667 1.33333H2V18H16.6667V1.33333H11.06C10.7667 0.593333 10.1733 0 9.33333 0ZM9.33333 1.33333C9.7 1.33333 10 1.63333 10 2V2.66667H12V4H6.66667V2.66667H8.66667V2C8.66667 1.63333 8.96667 1.33333 9.33333 1.33333ZM3.33333 2.66667H5.33333V5.33333H13.3333V2.66667H15.3333V16.6667H3.33333V2.66667ZM4.66667 7.33333V8.66667H6V7.33333H4.66667ZM7.33333 7.33333V8.66667H14V7.33333H7.33333ZM4.66667 10V11.3333H6V10H4.66667ZM7.33333 10V11.3333H14V10H7.33333ZM4.66667 12.6667V14H6V12.6667H4.66667ZM7.33333 12.6667V14H14V12.6667H7.33333Z" fill="#4D4D4D"/>
</svg>
