<svg width="18" height="18" viewBox="0 0 18 18" fill="none" xmlns="http://www.w3.org/2000/svg">
<path d="M11.1298 2.0003C10.773 2.00287 10.4188 2.02023 10.0446 2.12051C9.63706 2.23115 9.25032 2.40769 8.89971 2.64315C8.40729 2.35387 7.93029 2.11601 7.47321 2.06008C6.90557 1.99001 6.37843 2.02794 5.76579 2.0408C5.03936 2.05558 4.56557 2.42651 3.79671 2.72351C3.0285 3.01923 2.03914 3.30594 0.642857 3.30594H0V9.49344L0.361929 9.67408L1.54671 10.2572L5.76579 14.9577L5.78571 14.9777C6.26786 15.4547 6.91843 15.5729 7.49314 15.5402C8.0685 15.508 8.6085 15.3396 9.03986 15.0786C9.98936 14.5058 12.5756 12.7077 12.5756 12.7077L12.636 12.6672L12.6765 12.6274C12.9825 12.3233 13.1361 11.9524 13.239 11.5628L15.7095 10.3169L17.5577 9.69465L18 9.55323V3.30594H17.3571C16.2765 3.31333 15.205 3.10845 14.2033 2.70294C13.4344 2.40273 12.9677 2.03565 12.2336 2.02023C11.8414 2.01251 11.4853 1.99773 11.1291 2.0003H11.1298ZM11.1491 3.28601C11.4384 3.28344 11.7726 3.29887 12.1944 3.30594C12.2619 3.30851 12.8796 3.57208 13.7411 3.90894C14.4694 4.19501 15.4813 4.44894 16.7143 4.53123V8.62944L15.2274 9.13215H15.1875L15.147 9.15144L13.1991 10.1363C13.0957 9.83797 12.9316 9.56435 12.717 9.33273L12.6765 9.2723L9.94436 5.91787L9.54257 5.41515L9.03986 5.81694L7.3125 7.22351C6.73264 7.6253 6.26271 7.50958 5.78571 7.28394C5.6475 7.21837 5.65521 7.19844 5.54464 7.12322L8.478 4.69194L8.51786 4.65208C9.38893 3.78808 9.92443 3.48915 10.386 3.36637C10.6174 3.30337 10.8611 3.28858 11.1497 3.28601H11.1491ZM6.67029 3.30594C6.88478 3.29785 7.09957 3.30451 7.31314 3.32587C7.48157 3.3458 7.6725 3.48915 7.83579 3.54701C7.77021 3.60744 7.72264 3.64215 7.6545 3.70773L7.61464 3.74823L4.09886 6.66037L3.55629 7.10265L4.03843 7.60473C4.03843 7.60473 4.50321 8.10744 5.22386 8.4488C5.9445 8.79015 7.05729 8.98365 8.05628 8.28808L8.09679 8.24758L9.342 7.22351L11.7129 10.1363L11.7328 10.1768L11.7527 10.1961C12.177 10.6159 12.1674 11.2761 11.7527 11.7036C11.7476 11.7081 11.7579 11.7184 11.7527 11.7229C11.7476 11.7261 11.6627 11.7762 11.6524 11.7839L10.8084 10.6384L9.76371 11.4021L10.5879 12.5065C10.2536 12.7328 10.1031 12.8511 9.74378 13.0896L8.88043 11.9241L7.83514 12.6878L8.65929 13.7922C8.586 13.8372 8.43557 13.9382 8.37771 13.9735C8.17457 14.0963 7.78243 14.2345 7.43336 14.2544C7.10486 14.2724 6.8535 14.1966 6.73071 14.0937L6.71079 14.0738L2.41136 9.3128L2.331 9.21187L1.28571 8.68987V4.53123C2.51357 4.45087 3.53314 4.20723 4.25893 3.92887C5.11779 3.59973 5.73107 3.32844 5.80564 3.32587L6.66964 3.30594H6.67029Z" fill="#4D4D4D"/>
</svg>
