<svg width="18" height="18" viewBox="0 0 18 18" fill="none" xmlns="http://www.w3.org/2000/svg">
<path d="M9 0C4.03754 0 0 4.03754 0 9C0 13.9625 4.03754 18 9 18C13.9625 18 18 13.9625 18 9C18 4.03754 13.9625 0 9 0ZM9 1.38462C13.2134 1.38462 16.6154 4.78662 16.6154 9C16.6154 13.2134 13.2134 16.6154 9 16.6154C4.78662 16.6154 1.38462 13.2134 1.38462 9C1.38462 4.78662 4.78662 1.38462 9 1.38462ZM8.30769 4.84615V6.23077H9.69231V4.84615H8.30769ZM8.30769 7.61539V13.1538H9.69231V7.61539H8.30769Z" fill="#4D4D4D"/>
</svg>
