<svg width="18" height="18" viewBox="0 0 18 18" fill="none" xmlns="http://www.w3.org/2000/svg">
<path d="M15.7804 1.0067C15.5137 1.03167 15.255 1.1108 15.0199 1.23924L11.8299 2.92923L7.52044 1.87265L7.26695 1.80978L7.01345 1.93619L5.556 2.78119L4.69005 3.28818L5.49246 3.90063L7.33049 5.29521L5.02805 6.52079L2.55594 5.40067L2.26053 5.27425L1.96444 5.4223L0.78145 6.0557L0 6.4782L0.591496 7.11228L4.24592 11.0412L4.58392 11.4427L5.04901 11.1892L8.53444 9.33022L7.83749 13.1746L7.60494 14.4002L8.76698 13.9141L10.4989 13.1746L10.7524 13.0692L10.8585 12.8157L13.3719 6.71074L16.9208 4.80917C17.8983 4.28392 18.2917 3.04009 17.7658 2.06328C17.6389 1.83007 17.4672 1.62418 17.2606 1.45738C17.054 1.29058 16.8166 1.16614 16.5619 1.0912C16.309 1.01431 16.0439 0.98565 15.7804 1.0067ZM15.9068 2.35869C15.9913 2.35328 16.0785 2.35598 16.1603 2.38032C16.2883 2.416 16.4026 2.48937 16.4883 2.59089C16.574 2.6924 16.6272 2.81736 16.6409 2.94951C16.6546 3.08165 16.6282 3.21487 16.5652 3.33181C16.5021 3.44876 16.4053 3.54403 16.2874 3.60522L12.5059 5.65416L12.2943 5.75962L12.2098 5.99216L9.69647 12.0342L9.40039 12.1606L10.119 8.16819L10.3725 6.79524L9.14689 7.45028L4.88001 9.75272L2.19698 6.83715L2.30244 6.77361L4.77455 7.87278L5.09092 8.02015L5.36537 7.85115L15.654 2.42223C15.7326 2.38274 15.8189 2.36105 15.9068 2.35869ZM7.43594 3.24627L10.0345 3.87968L8.63989 4.59826L7.1189 3.43622L7.43594 3.24627ZM0.422497 15.3506V16.7026H17.9984V15.3506H0.422497Z" fill="#4D4D4D"/>
</svg>
