<svg width="18" height="18" viewBox="0 0 18 18" fill="none" xmlns="http://www.w3.org/2000/svg">
<path d="M9.18182 0C6.02773 0 3.45455 2.57318 3.45455 5.72727C3.45455 7.69909 4.46091 9.45 5.986 10.4834C3.06755 11.7352 1 14.6315 1 18H2.63636C2.63636 14.3755 5.55727 11.4545 9.18182 11.4545C12.8064 11.4545 15.7273 14.3755 15.7273 18H17.3636C17.3636 14.6315 15.2961 11.736 12.3776 10.4825C13.156 9.95709 13.7938 9.24889 14.2351 8.4199C14.6764 7.59091 14.9078 6.66641 14.9091 5.72727C14.9091 2.57318 12.3359 0 9.18182 0ZM9.18182 1.63636C11.4506 1.63636 13.2727 3.45845 13.2727 5.72727C13.2727 7.99609 11.4506 9.81818 9.18182 9.81818C6.913 9.81818 5.09091 7.99609 5.09091 5.72727C5.09091 3.45845 6.913 1.63636 9.18182 1.63636Z" fill="#4D4D4D"/>
</svg>
