<svg width="18" height="18" viewBox="0 0 18 18" fill="none" xmlns="http://www.w3.org/2000/svg">
<path d="M11.0878 8.51798C11.1953 8.62112 11.3624 8.62914 11.4794 8.53694L13.4984 6.94674L16.0227 8.90867L14.7308 9.00087C14.5704 9.01225 14.4477 9.14866 14.4534 9.30943C14.4589 9.4702 14.5909 9.59771 14.7517 9.59771C14.759 9.59771 14.7662 9.59742 14.7734 9.59698L16.8406 9.44934C16.9198 9.44365 16.9936 9.40659 17.0455 9.34634C17.0975 9.28609 17.1232 9.2076 17.1172 9.12838L16.9695 7.2089C16.9568 7.04434 16.8131 6.92121 16.6487 6.9339C16.4842 6.94659 16.361 7.09015 16.3737 7.25471L16.4694 8.49901L13.6806 6.33152C13.5722 6.24719 13.4202 6.24763 13.3124 6.33268L11.3142 7.9067L9.38542 6.05651C9.26623 5.94214 9.07701 5.94608 8.96278 6.06512C8.8484 6.18431 8.85234 6.37353 8.97139 6.48791L11.0878 8.51798Z" fill="#4D4D4D"/>
<path d="M17.7012 16.639H16.2837V13.1186C16.2837 12.9536 16.1372 12.8295 15.9722 12.8295H13.0883C12.9233 12.8295 12.773 12.9536 12.773 13.1186V16.639H10.943V10.4223C10.943 10.2573 10.7992 10.1404 10.6342 10.1404H7.75028C7.67471 10.1374 7.60133 10.1661 7.54793 10.2196C7.49454 10.2732 7.46609 10.3467 7.46959 10.4223V16.639H5.60219V8.97447C5.6003 8.8954 5.56689 8.82026 5.50955 8.7657C5.45207 8.71128 5.37548 8.68181 5.29626 8.68386H2.4123C2.33556 8.68269 2.26159 8.71318 2.20791 8.76803C2.15436 8.82303 2.12562 8.89773 2.12883 8.97447V16.639H0.597567V2.93212C0.597567 2.76712 0.463786 2.63334 0.298784 2.63334C0.133782 2.63334 0 2.76712 0 2.93212V16.9214C0 17.0866 0.135532 17.2365 0.300534 17.2365H17.7012C17.8662 17.2365 18 17.1029 18 16.9378C18 16.7728 17.8662 16.639 17.7012 16.639ZM2.7264 16.639V9.28142H5.00463V16.639H2.7264ZM8.06716 16.639V10.738H10.3454V16.639H8.06716ZM13.3706 16.639V13.427H15.6861V16.639H13.3706Z" fill="#4D4D4D"/>
<path d="M4.86107 5.96095C4.84677 5.95876 4.83233 5.9576 4.81789 5.95745C4.80797 5.95745 4.7979 5.95803 4.78798 5.95906C4.48424 5.93002 4.25213 5.67486 4.25169 5.36966C4.25169 5.20466 4.11791 5.07087 3.9529 5.07087C3.7879 5.07087 3.65412 5.20466 3.65412 5.36966C3.65485 5.90143 4.00776 6.36828 4.5191 6.51402V6.77911C4.5191 6.94425 4.65289 7.07789 4.81789 7.07789C4.98289 7.07789 5.11667 6.94425 5.11667 6.77911V6.52744C5.70446 6.38899 6.0953 5.83198 6.02542 5.23223C5.95569 4.63233 5.4477 4.17992 4.84371 4.17992C4.51662 4.17992 4.25154 3.91484 4.25154 3.58775C4.25154 3.26066 4.51662 2.99558 4.84371 2.99558C5.1708 2.99558 5.43588 3.26081 5.43588 3.5879C5.43588 3.7529 5.56966 3.88668 5.73466 3.88668C5.89967 3.88668 6.03345 3.7529 6.03345 3.5879C6.03272 3.02184 5.634 2.53442 5.07932 2.42165V2.14796C5.07932 1.98296 4.94554 1.84917 4.78054 1.84917C4.61554 1.84917 4.48176 1.98296 4.48176 2.14796V2.45462C3.92314 2.6329 3.57767 3.19166 3.66798 3.77114C3.75829 4.35047 4.25738 4.77778 4.84371 4.77763C5.16715 4.77778 5.43048 5.03746 5.4353 5.36076C5.43996 5.6842 5.18422 5.95147 4.86107 5.9611V5.96095Z" fill="#4D4D4D"/>
<path d="M4.84371 8.17966C6.87611 8.17966 8.52365 6.53212 8.52365 4.49987C8.52365 2.46746 6.87611 0.819923 4.84371 0.819923C2.81131 0.819923 1.16377 2.46746 1.16377 4.49987C1.16611 6.53124 2.81233 8.17747 4.84371 8.17966ZM4.84371 1.41749C6.54611 1.41749 7.92609 2.79747 7.92609 4.49987C7.92609 6.20212 6.54611 7.58209 4.84371 7.58209C3.14146 7.58209 1.76134 6.20212 1.76134 4.49987C1.76324 2.79834 3.14219 1.41939 4.84371 1.41749Z" fill="#4D4D4D"/>
</svg>
