<svg width="8" height="12" viewBox="0 0 8 12" fill="none" xmlns="http://www.w3.org/2000/svg">
<path d="M4 0C1.93225 0 0.25 1.68225 0.25 3.75H1.75C1.75 2.5095 2.7595 1.5 4 1.5C5.2405 1.5 6.25 2.5095 6.25 3.75C6.25 4.55175 5.9095 4.84875 5.13925 5.44125C4.85275 5.66175 4.5295 5.91075 4.21975 6.21975C3.23575 7.203 3.24625 8.17275 3.25 8.25V9.75H4.75V8.24325C4.75 8.22525 4.76725 7.7925 5.28025 7.28025C5.52025 7.04025 5.79175 6.83175 6.0535 6.63C6.8485 6.018 7.75 5.325 7.75 3.75C7.75 1.68225 6.06775 0 4 0ZM3.25 10.5H4.75V12H3.25V10.5Z" fill="#0F4780"/>
</svg>
